<svg width="33" height="33" viewBox="0 0 33 33" fill="none" xmlns="http://www.w3.org/2000/svg">
<path d="M31.0332 16.166C31.0332 24.2658 24.467 30.832 16.3672 30.832C8.26737 30.832 1.70117 24.2658 1.70117 16.166C1.70117 8.0662 8.26737 1.5 16.3672 1.5C24.467 1.5 31.0332 8.0662 31.0332 16.166Z" fill="white" stroke="#A29D9B" stroke-width="3"/>
<path fill-rule="evenodd" clip-rule="evenodd" d="M14.5703 9.75576C14.5703 8.67821 15.4438 7.80469 16.5214 7.80469C17.5989 7.80469 18.4725 8.67821 18.4725 9.75576V22.5771C18.4725 23.6546 17.5989 24.5282 16.5214 24.5282C15.4438 24.5282 14.5703 23.6546 14.5703 22.5771V9.75576Z" fill="#FF8200"/>
<path fill-rule="evenodd" clip-rule="evenodd" d="M23.0005 14.1309C24.1253 14.1309 25.0371 15.0427 25.0371 16.1675C25.0371 17.2923 24.1253 18.2041 23.0005 18.2041H10.0401C8.91526 18.2041 8.00343 17.2923 8.00343 16.1675C8.00343 15.0427 8.91526 14.1309 10.0401 14.1309L23.0005 14.1309Z" fill="#FF8200"/>
</svg>
