<svg width="23" height="26" viewBox="0 0 23 26" fill="none" xmlns="http://www.w3.org/2000/svg">
<path id="calendar" fill-rule="evenodd" clip-rule="evenodd" d="M0 23.5625C0 24.9082 1.0918 26 2.4375 26H20.3125C21.6582 26 22.75 24.9082 22.75 23.5625V9.75H0V23.5625ZM16.25 13.6094C16.25 13.2742 16.5242 13 16.8594 13H18.8906C19.2258 13 19.5 13.2742 19.5 13.6094V15.6406C19.5 15.9758 19.2258 16.25 18.8906 16.25H16.8594C16.5242 16.25 16.25 15.9758 16.25 15.6406L16.25 13.6094ZM16.25 20.1094C16.25 19.7742 16.5242 19.5 16.8594 19.5H18.8906C19.2258 19.5 19.5 19.7742 19.5 20.1094V22.1406C19.5 22.4758 19.2258 22.75 18.8906 22.75H16.8594C16.5242 22.75 16.25 22.4758 16.25 22.1406L16.25 20.1094ZM9.75 13.6094C9.75 13.2742 10.0242 13 10.3594 13H12.3906C12.7258 13 13 13.2742 13 13.6094V15.6406C13 15.9758 12.7258 16.25 12.3906 16.25H10.3594C10.0242 16.25 9.75001 15.9758 9.75001 15.6406L9.75 13.6094ZM9.75 20.1094C9.75 19.7742 10.0242 19.5 10.3594 19.5H12.3906C12.7258 19.5 13 19.7742 13 20.1094V22.1406C13 22.4758 12.7258 22.75 12.3906 22.75H10.3594C10.0242 22.75 9.75001 22.4758 9.75001 22.1406L9.75 20.1094ZM3.25 13.6094C3.25 13.2742 3.52422 13 3.85937 13H5.89063C6.22578 13 6.5 13.2742 6.5 13.6094V15.6406C6.5 15.9758 6.22578 16.25 5.89063 16.25H3.85938C3.52423 16.25 3.25001 15.9758 3.25001 15.6406L3.25 13.6094ZM3.25 20.1094C3.25 19.7742 3.52422 19.5 3.85937 19.5H5.89063C6.22578 19.5 6.5 19.7742 6.5 20.1094V22.1406C6.5 22.4758 6.22578 22.75 5.89063 22.75H3.85938C3.52423 22.75 3.25001 22.4758 3.25001 22.1406L3.25 20.1094ZM20.3125 3.25H17.875V0.8125C17.875 0.365627 17.5094 0 17.0625 0H15.4375C14.9906 0 14.625 0.365627 14.625 0.8125V3.25H8.125V0.8125C8.125 0.365627 7.75937 0 7.3125 0H5.6875C5.24063 0 4.875 0.365627 4.875 0.8125V3.25H2.4375C1.0918 3.25 0 4.3418 0 5.6875V8.125H22.75V5.6875C22.75 4.3418 21.6582 3.25 20.3125 3.25Z" fill="#C1B7B3"/>
</svg>
