<svg id="Group_2831" data-name="Group 2831" xmlns="http://www.w3.org/2000/svg" width="287.75" height="194" viewBox="0 0 287.75 194">
  <path id="Rectangle_261" data-name="Rectangle 261" d="M10,0H277.75a10,10,0,0,1,10,10V99a0,0,0,0,1,0,0H0a0,0,0,0,1,0,0V10A10,10,0,0,1,10,0Z" fill="#fdf8e9"/>
  <rect id="Rectangle_263" data-name="Rectangle 263" width="287.75" height="55" transform="translate(0 102)" fill="#dcdcdc"/>
  <path id="Rectangle_264" data-name="Rectangle 264" d="M0,0H287.75a0,0,0,0,1,0,0V24a10,10,0,0,1-10,10H10A10,10,0,0,1,0,24V0A0,0,0,0,1,0,0Z" transform="translate(0 160)" fill="#ffe9ea"/>
</svg>
