<?xml version="1.0" encoding="UTF-8"?><svg id="Layer_1" xmlns="http://www.w3.org/2000/svg" viewBox="0 0 26.98 18.86"><defs><style>.cls-1{fill:#f5720e;}.cls-2,.cls-3{fill:#fff;}.cls-4,.cls-5{fill:#4a4442;}.cls-6{fill:#f57110;}.cls-6,.cls-5,.cls-3{fill-rule:evenodd;}</style></defs><path class="cls-3" d="m1.47,0h9.61v.25Q11.08,0,11.08,0h0s0,0,0,0h0s.01,0,.01,0c.01,0,.03,0,.05,0,.04,0,.09.01.16.02.13.02.3.07.48.15.36.17.75.53.75,1.18v16.21s-.25-.04-.25-.04q-.25-.04-.25-.04h0s0,.01,0,.01V1.37c0-.41-.22-.61-.47-.73-.13-.06-.26-.09-.36-.11-.05,0-.09-.01-.12-.02-.01,0-.02,0-.03,0h0s-9.59,0-9.59,0h0s-.02,0-.03,0c-.03,0-.07,0-.12.02-.1.02-.23.05-.36.11-.25.12-.47.32-.47.73v16.16s0,.01,0,.02c0,.02.01.06.03.1.02.09.07.2.13.31.13.22.32.41.66.41h1.91s0,0,0,0c0,0,.02,0,.03,0,.03,0,.08-.01.14-.04.11-.05.29-.19.43-.56h0c.1-.23.26-.42.47-.54.21-.12.44-.17.68-.15h2.58c.24-.02.47.03.68.15.21.12.37.31.47.53h0c.14.38.32.51.43.57.06.03.11.04.14.04.02,0,.03,0,.03,0,0,0,0,0,0,0h.01s1.89,0,1.89,0c.34,0,.53-.19.66-.41.06-.11.1-.22.13-.31.01-.04.02-.08.03-.1,0,0,0-.01,0-.02v.02h.25q.25.04.25.04h0s0,0,0,0h0s0,.02,0,.02c0,.01,0,.02,0,.04,0,.03-.02.08-.03.14-.03.11-.09.27-.18.42-.18.31-.52.66-1.09.66h-1.86s0,0,0,0h.01s0,0,0,0h0s0,0,0,0t-.03-.25q-.03-.25-.03-.25l.03.25v.25h.01s-.02,0-.03,0c-.03,0-.06,0-.1,0-.08,0-.19-.03-.3-.09-.24-.12-.49-.36-.67-.82,0,0,0,0,0,0l.23-.1-.23.09s0,0,0,0c-.05-.12-.14-.23-.26-.29-.12-.07-.25-.1-.39-.08h-.01s-2.64,0-2.64,0h-.01c-.13-.02-.27.01-.39.08-.12.07-.21.17-.26.29,0,0,0,0,0,0l-.23-.09.23.1s0,0,0,0c-.18.46-.44.71-.67.82-.12.06-.22.08-.3.09-.04,0-.07,0-.1,0-.01,0-.02,0-.03,0h.01v-.25l.03-.25s0,0-.03.25q-.03.25-.03.25h0s0,0,0,0h0s.01,0,.01,0c0,0,0,0,0,0h-1.87c-.58,0-.91-.34-1.09-.66-.09-.16-.14-.31-.18-.42-.02-.06-.03-.1-.03-.14,0-.02,0-.03,0-.04h0s0-.02,0-.02h0s0,0,.25-.04l-.25.04v-.02s0-16.19,0-16.19C0,.71.39.36.75.18c.18-.09.35-.13.48-.15.06-.01.12-.02.16-.02.02,0,.04,0,.05,0h.01s0,0,0,0h0s0,0,.01.25V0S1.47,0,1.47,0Z"/><path class="cls-4" d="m11.07.25H1.47S.25.3.25,1.37v16.18s.15,1.06,1.07,1.06h1.88s.54.07.86-.76c.07-.17.2-.32.37-.41.16-.09.35-.13.54-.11h2.61c.19-.02.38.02.54.11.16.09.29.24.37.41.33.83.86.76.86.76h1.88c.91,0,1.07-1.06,1.07-1.06V1.37c0-1.07-1.22-1.12-1.22-1.12Zm-.43,13.84H1.91V1.57h8.72v12.53Z"/><path class="cls-1" d="m7.81,12.96h-1.15c-.06,0-.11-.02-.15-.06-.04-.04-.06-.09-.06-.15v-7.43c0-.06.02-.11.06-.15.04-.04.09-.06.15-.06h1.15c.06,0,.11.02.15.06.04.04.06.09.06.15v7.44c0,.06-.02.11-.06.15s-.09.06-.15.06"/><path class="cls-1" d="m9.75,12.96h-1.15c-.06,0-.11-.02-.15-.06-.04-.04-.06-.09-.06-.15v-6.48c0-.06.02-.11.06-.15.04-.04.09-.06.15-.06h1.15c.06,0,.11.02.15.06.04.04.06.09.06.15v6.48c0,.06-.02.11-.06.15-.04.04-.09.06-.15.06"/><path class="cls-1" d="m5.86,12.96h-1.15c-.06,0-.11-.02-.15-.06-.04-.04-.06-.09-.06-.15v-5.25c0-.06.02-.11.06-.15.04-.04.09-.06.15-.06h1.15c.06,0,.11.02.15.06.04.04.06.09.06.15v5.25c0,.06-.02.11-.06.15-.04.04-.09.06-.15.06"/><path class="cls-1" d="m3.92,12.96h-1.15c-.06,0-.11-.02-.15-.06-.04-.04-.06-.09-.06-.15v-3.03c0-.06.02-.11.06-.15.04-.04.09-.06.15-.06h1.15c.06,0,.11.02.15.06.04.04.06.09.06.15v3.03c0,.06-.02.11-.06.15-.04.04-.09.06-.15.06"/><path class="cls-5" d="m22.19,4.85c-.8,0-1.58.24-2.25.68-.66.44-1.18,1.08-1.49,1.81-.31.74-.39,1.55-.23,2.33.16.78.54,1.5,1.11,2.07.57.56,1.29.95,2.07,1.1.78.16,1.6.07,2.33-.23.74-.31,1.37-.83,1.81-1.49.44-.66.68-1.45.68-2.25,0-1.07-.43-2.1-1.18-2.85-.76-.76-1.78-1.18-2.86-1.18Zm-2.66.06c.79-.53,1.71-.81,2.66-.81,1.27,0,2.49.5,3.39,1.4.9.9,1.4,2.11,1.4,3.38,0,.95-.28,1.87-.8,2.66-.53.79-1.27,1.4-2.15,1.77-.88.36-1.84.46-2.77.27-.93-.18-1.78-.64-2.45-1.31-.67-.67-1.13-1.52-1.31-2.45-.19-.93-.09-1.89.27-2.77.36-.88.98-1.62,1.76-2.15Z"/><path class="cls-4" d="m22.73,8.88c0,.11-.03.21-.09.3-.06.09-.14.16-.24.2-.1.04-.21.05-.31.03-.1-.02-.2-.07-.28-.15s-.13-.17-.15-.28c-.02-.1-.01-.21.03-.31.04-.1.11-.18.2-.24.09-.06.19-.09.3-.09.14,0,.28.06.38.16.1.1.16.24.16.38"/><path class="cls-6" d="m15.63,6.02c.1.1.1.25,0,.35-.65.67-1.02,1.57-1.01,2.51.02.94.38,1.85,1.02,2.55.09.1.09.26-.02.35-.1.09-.26.09-.35-.02-.72-.79-1.13-1.81-1.15-2.88h0c0-1.07.41-2.1,1.15-2.87.1-.1.25-.1.35,0Z"/><path class="cls-6" d="m16.3,6.77c.1.1.1.25,0,.35-.46.47-.71,1.11-.71,1.77.01.66.27,1.3.72,1.79.09.1.09.26-.02.35-.1.09-.26.09-.35-.02-.53-.58-.83-1.34-.85-2.12h0s0,0,0,0c0-.79.3-1.55.85-2.12.1-.1.25-.1.35,0Z"/><path class="cls-6" d="m17.03,7.24c.1.1.1.25,0,.35-.33.35-.52.81-.52,1.29,0,.49.2.95.53,1.31.09.1.09.26-.02.35-.1.09-.26.09-.35-.02-.41-.45-.64-1.03-.66-1.64h0c0-.62.24-1.2.66-1.64.1-.1.25-.1.35,0Z"/><path class="cls-3" d="m10.19,15.32c-.23,0-.46.07-.65.2-.19.13-.34.31-.43.52-.09.21-.11.45-.07.67.05.23.16.43.32.6.16.16.37.27.6.32.23.05.46.02.67-.07.21-.09.4-.24.52-.43.13-.19.2-.42.2-.65,0-.31-.12-.61-.34-.82-.22-.22-.52-.34-.82-.34Zm-.79-.01c.23-.16.51-.24.79-.24.38,0,.74.15,1,.41.27.27.41.63.42,1,0,.28-.08.55-.24.79-.16.23-.38.41-.64.52-.26.11-.54.14-.82.08-.27-.05-.53-.19-.73-.39-.2-.2-.33-.45-.39-.73-.05-.27-.03-.56.08-.82.11-.26.29-.48.52-.64Z"/><path class="cls-2" d="m10.62,16.48c0,.09-.03.17-.07.24-.05.07-.11.13-.19.16-.08.03-.17.04-.25.02-.08-.02-.16-.06-.22-.12-.06-.06-.1-.14-.12-.22-.02-.08,0-.17.02-.25.03-.08.09-.15.16-.19s.15-.07.24-.07c.11,0,.22.05.3.13.08.08.13.19.13.3"/></svg>