<svg fill="none" height="25" viewBox="0 0 25 25" width="25" xmlns="http://www.w3.org/2000/svg"><path d="m24 12.5c0 6.3513-5.1487 11.5-11.5 11.5-6.35127 0-11.5-5.1487-11.5-11.5 0-6.35127 5.14873-11.5 11.5-11.5 6.3513 0 11.5 5.14873 11.5 11.5z" fill="#fff" stroke="#a29d9b" stroke-width="2"/><path clip-rule="evenodd" d="m10.7361 16.8429-3.57501-3.4866c-.21479-.2095-.21479-.5491 0-.7586l.77779-.7586c.21478-.2095.56304-.2095.77783 0l2.40829 2.3487 5.1583-5.0307c.2148-.20947.563-.20947.7778 0l.7778.75859c.2148.20951.2148.54911 0 .75861l-6.325 6.1686c-.2148.2095-.563.2095-.7778 0z" fill="#07bc2a" fill-rule="evenodd"/></svg>