<svg width="26" height="26" viewBox="0 0 26 26" fill="none" xmlns="http://www.w3.org/2000/svg">
<path d="M24.4996 13.4051C24.4996 19.5335 19.5316 24.5016 13.4031 24.5016C7.27471 24.5016 2.30664 19.5335 2.30664 13.4051C2.30664 7.27666 7.27471 2.30859 13.4031 2.30859C19.5316 2.30859 24.4996 7.27666 24.4996 13.4051Z" fill="white" stroke="#A29D9B" stroke-width="3"/>
<path d="M13.4722 0.664062C6.59039 0.664062 1.01758 6.24934 1.01758 13.1312C1.01758 20.0131 6.59039 25.5983 13.4722 25.5983C20.3666 25.5983 25.9519 20.0131 25.9519 13.1312C25.9519 6.24934 20.3666 0.664062 13.4722 0.664062ZM13.4847 23.1049C7.97424 23.1049 3.51101 18.6417 3.51101 13.1312C3.51101 7.62072 7.97424 3.15749 13.4847 3.15749C18.9952 3.15749 23.4584 7.62072 23.4584 13.1312C23.4584 18.6417 18.9952 23.1049 13.4847 23.1049Z" fill="#A29D9B"/>
<path d="M14.0686 6.89844H11.9258V14.0517L19.4255 17.8072L20.4969 16.3408L14.0686 13.1576V6.89844Z" fill="#FF890A"/>
</svg>
