<svg width="33" height="33" viewBox="0 0 33 33" fill="none" xmlns="http://www.w3.org/2000/svg">
<g id="ex">
<path id="Ellipse 5" d="M31.3242 16.166C31.3242 24.1741 24.8323 30.666 16.8242 30.666C8.81609 30.666 2.32422 24.1741 2.32422 16.166C2.32422 8.15789 8.81609 1.66602 16.8242 1.66602C24.8323 1.66602 31.3242 8.15789 31.3242 16.166Z" fill="white" stroke="#A29D9B" stroke-width="3"/>
<g id="Group 276">
<path id="Rectangle 119" fill-rule="evenodd" clip-rule="evenodd" d="M19.9965 10.2602C20.7373 9.493 21.9598 9.47166 22.727 10.2125C23.4941 10.9533 23.5155 12.1758 22.7746 12.943L13.9596 22.0712C13.2188 22.8383 11.9963 22.8597 11.2292 22.1188C10.462 21.378 10.4407 20.1555 11.1815 19.3883L19.9965 10.2602Z" fill="#FF0000"/>
<path id="Rectangle 120" fill-rule="evenodd" clip-rule="evenodd" d="M22.9914 19.1701C23.7922 19.9434 23.8145 21.2195 23.0412 22.0203C22.2678 22.8211 20.9917 22.8434 20.1909 22.0701L10.9637 13.1594C10.1629 12.3861 10.1407 11.11 10.914 10.3092C11.6873 9.50842 12.9634 9.48614 13.7642 10.2595L22.9914 19.1701Z" fill="#FF0000"/>
</g>
</g>
</svg>
