<svg width="24" height="25" viewBox="0 0 24 25" fill="none" xmlns="http://www.w3.org/2000/svg">
<path fill-rule="evenodd" clip-rule="evenodd" d="M19.6433 4.17138H18.6878V2.21191H16.777V4.17138L7.22287 4.17138V2.21191H5.31204V4.17138H4.35663C3.30568 4.17138 2.4458 5.05313 2.4458 6.13084L2.4458 21.8066C2.4458 22.8843 3.30568 23.766 4.35663 23.766L19.6433 23.766C20.6942 23.766 21.5541 22.8843 21.5541 21.8066L21.5541 6.13084C21.5541 5.05313 20.6942 4.17138 19.6433 4.17138ZM19.6433 21.8066L4.35663 21.8066L4.35663 11.0295L19.6433 11.0295L19.6433 21.8066ZM19.6433 9.07004L4.35663 9.07004L4.35663 6.13084L19.6433 6.13084V9.07004Z" fill="#1E1E1E"/>
</svg>
