<svg width="55" height="61" viewBox="0 0 55 61" fill="none" xmlns="http://www.w3.org/2000/svg">
<path d="M20.7173 19.3857C24.9049 15.0628 30.1013 11.8611 35.8337 10.0716C32.1277 11.6781 28.7792 14.014 25.9854 16.9418C23.1917 19.8696 21.0092 23.3299 19.5667 27.1188C18.1242 30.9078 17.4508 34.9487 17.5862 39.0033C17.7217 43.0579 18.6633 47.0443 20.3554 50.7274C20.9774 52.1413 21.7324 53.4922 22.6102 54.7617C23.7831 56.527 25.1356 58.165 26.6457 59.6491C26.9608 59.9569 27.2793 60.2565 27.6012 60.5479C28.3362 60.4964 29.0606 60.3424 29.7534 60.0904C28.5753 59.2948 27.4718 58.393 26.4566 57.3961C25.444 56.3983 24.5249 55.309 23.7109 54.1419C22.7729 52.7414 21.9594 51.2606 21.2798 49.7167C19.4389 45.2617 19.0235 40.3412 20.0913 35.6381C21.1592 30.935 23.6572 26.6829 27.2387 23.472C30.8201 20.2611 35.3072 18.2508 40.077 17.7202C44.8468 17.1897 49.6626 18.1651 53.8558 20.5112V19.7584C53.8558 19.5228 53.8416 19.2893 53.8214 19.0572C50.5588 17.3534 46.9545 16.4148 43.2793 16.3121C39.6042 16.2093 35.9536 16.945 32.6018 18.4638C29.25 19.9826 26.2841 22.2451 23.9269 25.0814C21.5697 27.9176 19.8825 31.2539 18.9919 34.8397C19.6791 28.4242 22.4709 22.4212 26.9273 17.7771C31.3837 13.133 37.251 10.112 43.6042 9.19052L40.8929 7.61702C35.9281 8.38484 31.1678 10.1493 26.8956 12.8053C22.6233 15.4613 18.9266 18.9545 16.0256 23.0768C13.1246 27.1991 11.0786 31.8662 10.0096 36.8C8.94064 41.7339 8.87046 46.8335 9.80327 51.7952L11.2531 52.6363C9.96159 46.7398 10.1504 40.6128 11.8027 34.808C13.4549 29.0032 16.5185 23.7031 20.7173 19.3857Z" fill="white"/>
<path d="M35.3278 25.8447C31.2553 29.1401 28.6519 33.9269 28.0903 39.1519C27.5286 44.3769 29.0547 49.6122 32.3329 53.7061C33.2771 54.8841 34.3514 55.9503 35.5352 56.8843L36.7203 56.1967C35.4167 55.3325 34.2548 54.2696 33.2763 53.0463C33.2027 52.9546 33.1345 52.8596 33.0629 52.7666C31.8537 50.8893 31.1701 48.7192 31.0839 46.4845C30.9977 44.2497 31.5121 42.0329 32.573 40.0671C33.6339 38.1014 35.2021 36.4593 37.1128 35.3135C39.0234 34.1677 41.2059 33.5606 43.4307 33.556C43.883 33.556 44.3349 33.5805 44.7846 33.6294C47.5026 33.9178 50.0472 35.1093 52.0156 37.0153C50.9273 36.2921 49.7078 35.7914 48.427 35.5419C47.1461 35.2924 45.8289 35.299 44.5506 35.5612C43.2723 35.8234 42.0578 36.3362 40.9766 37.0702C39.8954 37.8042 38.9686 38.7451 38.2492 39.8392C37.5297 40.9332 37.0316 42.159 36.7834 43.4466C36.5352 44.7341 36.5418 46.0582 36.8026 47.3432C37.0635 48.6282 37.5736 49.849 38.3038 50.9359C39.034 52.0227 39.97 52.9544 41.0584 53.6776L41.9801 53.1427C40.8271 52.4591 39.8404 51.5253 39.092 50.4096C38.3436 49.2938 37.8524 48.0242 37.6543 46.6933C37.4562 45.3625 37.556 44.004 37.9466 42.7169C38.3373 41.4298 39.0088 40.2466 39.9123 39.2535C40.8157 38.2605 41.9282 37.4827 43.1687 36.9769C44.4092 36.4711 45.7464 36.2501 47.0827 36.3298C48.419 36.4096 49.7208 36.7883 50.893 37.4381C52.0652 38.088 53.0784 38.9927 53.8585 40.0863V37.6425C53.8484 37.6303 53.8396 37.6174 53.8301 37.6052C52.1782 35.5422 49.9547 34.0179 47.4409 33.2252C44.9272 32.4324 42.236 32.4067 39.7078 33.1514C37.1795 33.8961 34.9277 35.3777 33.2371 37.4088C31.5465 39.44 30.493 41.9294 30.2098 44.5624C30.1612 45.015 30.1353 45.4675 30.1322 45.92C29.9279 44.6044 29.8966 43.2674 30.039 41.9435C30.4374 38.2418 32.1805 34.818 34.9343 32.3281C37.6881 29.8381 41.2589 28.4569 44.9629 28.4493C45.5122 28.4495 46.0611 28.4794 46.6072 28.5389C49.23 28.8186 51.7325 29.791 53.8605 31.3573V30.2034C51.5751 28.6722 48.9358 27.7588 46.1971 27.5514C43.4584 27.3439 40.7127 27.8494 38.2249 29.0189C35.7371 30.1885 33.591 31.9828 31.9937 34.2287C30.3964 36.4745 29.4018 39.0963 29.1057 41.841C29.0557 42.3074 29.0294 42.773 29.0186 43.2367C28.8831 41.9122 28.8863 40.5771 29.0281 39.2534C29.5254 34.6331 31.7008 30.3597 35.1378 27.2516C38.5747 24.1435 43.0316 22.4193 47.6546 22.4092C48.3404 22.4092 49.0257 22.4464 49.7075 22.5205C51.1227 22.6748 52.5161 22.9893 53.8612 23.4579V22.4587C52.545 22.0231 51.187 21.7273 49.8094 21.5763C47.2347 21.2896 44.629 21.5192 42.1432 22.2519C39.6574 22.9846 37.3409 24.2057 35.3278 25.8447Z" fill="white"/>
<path d="M27.4298 61C25.9227 61.0007 24.4419 60.6027 23.1363 59.846L4.29569 48.9095C2.992 48.1501 1.90937 47.06 1.15595 45.7483C0.40253 44.4365 0.00469689 42.949 0.00219727 41.4344V19.5635C0.00462894 18.0488 0.402441 16.5613 1.15587 15.2496C1.90929 13.9378 2.99195 12.8478 4.29569 12.0884L23.1363 1.15192C24.4424 0.39676 25.9227 -0.000671387 27.4294 -0.000671387C28.9362 -0.000671387 30.4165 0.39676 31.7226 1.15192L50.5632 12.0884C51.867 12.8477 52.9497 13.9378 53.7031 15.2495C54.4565 16.5613 54.8543 18.0488 54.8567 19.5635V41.4391C54.8542 42.9538 54.4565 44.4413 53.703 45.7531C52.9496 47.0648 51.8669 48.1549 50.5632 48.9143L31.7226 59.8507C30.4167 60.6057 28.9362 61.002 27.4298 61ZM23.7643 2.24482L4.92371 13.1813C3.81084 13.8296 2.88667 14.7601 2.24346 15.8798C1.60026 16.9995 1.26055 18.2692 1.25825 19.5622V41.4391C1.26048 42.7321 1.60015 44.0019 2.24336 45.1216C2.88657 46.2413 3.8108 47.1718 4.92371 47.82L23.7643 58.7565C24.8795 59.4015 26.1435 59.741 27.4301 59.741C28.7167 59.741 29.9808 59.4015 31.0959 58.7565L49.9365 47.82C51.0495 47.1718 51.9739 46.2414 52.6173 45.1217C53.2606 44.002 53.6004 42.7322 53.6027 41.4391V19.5635C53.6004 18.2705 53.2606 17.0007 52.6173 15.881C51.9739 14.7612 51.0495 13.8308 49.9365 13.1826L31.0959 2.24618C29.9807 1.60138 28.7167 1.26204 27.4301 1.26204C26.1436 1.26204 24.8796 1.60138 23.7643 2.24618V2.24482Z" fill="white"/>
<path d="M10.0025 42.8749C12.204 42.8749 13.9887 41.0808 13.9887 38.8678C13.9887 36.6548 12.204 34.8607 10.0025 34.8607C7.80093 34.8607 6.01623 36.6548 6.01623 38.8678C6.01623 41.0808 7.80093 42.8749 10.0025 42.8749Z" fill="white"/>
<path d="M21.1792 53.9844C22.655 53.9844 23.8513 52.7818 23.8513 51.2983C23.8513 49.8148 22.655 48.6122 21.1792 48.6122C19.7034 48.6122 18.5071 49.8148 18.5071 51.2983C18.5071 52.7818 19.7034 53.9844 21.1792 53.9844Z" fill="white"/>
<path d="M38.3012 20.3102C39.9254 20.3102 41.2421 18.9867 41.2421 17.354C41.2421 15.7213 39.9254 14.3977 38.3012 14.3977C36.677 14.3977 35.3603 15.7213 35.3603 17.354C35.3603 18.9867 36.677 20.3102 38.3012 20.3102Z" fill="white"/>
<path d="M49.7149 31.2094C51.0236 31.2094 52.0845 30.1429 52.0845 28.8274C52.0845 27.5119 51.0236 26.4454 49.7149 26.4454C48.4062 26.4454 47.3453 27.5119 47.3453 28.8274C47.3453 30.1429 48.4062 31.2094 49.7149 31.2094Z" fill="white"/>
<path d="M33.7153 29.7017C34.7603 29.7017 35.6074 28.8501 35.6074 27.7997C35.6074 26.7492 34.7603 25.8976 33.7153 25.8976C32.6703 25.8976 31.8231 26.7492 31.8231 27.7997C31.8231 28.8501 32.6703 29.7017 33.7153 29.7017Z" fill="white"/>
<path d="M20.6268 20.131C21.6718 20.131 22.519 19.2795 22.519 18.229C22.519 17.1785 21.6718 16.3269 20.6268 16.3269C19.5818 16.3269 18.7346 17.1785 18.7346 18.229C18.7346 19.2795 19.5818 20.131 20.6268 20.131Z" fill="white"/>
</svg>
