<svg width="310" height="61" viewBox="0 0 310 61" fill="none" xmlns="http://www.w3.org/2000/svg">
<g clip-path="url(#clip0_3136_3268)">
<path d="M20.717 19.3857C24.9046 15.0629 30.1009 11.8611 35.8333 10.0717C32.1274 11.6781 28.7788 14.0141 25.9851 16.9419C23.1913 19.8696 21.0089 23.3299 19.5664 27.1189C18.1238 30.9078 17.4505 34.9487 17.5859 39.0033C17.7214 43.058 18.6629 47.0443 20.355 50.7275C20.9771 52.1413 21.7321 53.4922 22.6098 54.7617C23.7828 56.5271 25.1352 58.1651 26.6453 59.6492C26.9605 59.9569 27.279 60.2565 27.6009 60.5479C28.3359 60.4964 29.0602 60.3424 29.753 60.0904C28.575 59.2949 27.4715 58.3931 26.4563 57.3962C25.4437 56.3984 24.5246 55.309 23.7105 54.1419C22.7726 52.7414 21.9591 51.2606 21.2795 49.7167C19.4386 45.2618 19.0232 40.3412 20.091 35.6381C21.1588 30.9351 23.6569 26.6829 27.2383 23.472C30.8198 20.2612 35.3069 18.2509 40.0767 17.7203C44.8465 17.1897 49.6623 18.1652 53.8555 20.5112V19.7584C53.8555 19.5229 53.8413 19.2893 53.8211 19.0572C50.5584 17.3534 46.9542 16.4149 43.279 16.3121C39.6038 16.2093 35.9533 16.945 32.6015 18.4638C29.2497 19.9826 26.2838 22.2452 23.9266 25.0814C21.5694 27.9177 19.8822 31.254 18.9916 34.8397C19.6787 28.4243 22.4706 22.4212 26.927 17.7771C31.3833 13.133 37.2507 10.112 43.6039 9.19056L40.8926 7.61707C35.9278 8.38488 31.1674 10.1493 26.8952 12.8053C22.623 15.4613 18.9263 18.9546 16.0253 23.0769C13.1243 27.1992 11.0783 31.8663 10.0093 36.8001C8.9403 41.7339 8.87012 46.8336 9.80293 51.7953L11.2528 52.6363C9.96125 46.7398 10.1501 40.6129 11.8023 34.8081C13.4546 29.0033 16.5182 23.7031 20.717 19.3857Z" fill="#FF890A"/>
<path d="M35.3273 25.8447C31.2548 29.1402 28.6514 33.927 28.0897 39.152C27.5281 44.377 29.0542 49.6123 32.3324 53.7062C33.2766 54.8841 34.3509 55.9504 35.5346 56.8844L36.7198 56.1968C35.4161 55.3326 34.2543 54.2697 33.2758 53.0464C33.2022 52.9547 33.134 52.8597 33.0624 52.7667C31.8532 50.8894 31.1696 48.7193 31.0834 46.4846C30.9972 44.2498 31.5115 42.033 32.5724 40.0672C33.6333 38.1015 35.2016 36.4593 37.1122 35.3136C39.0229 34.1678 41.2053 33.5607 43.4301 33.5561C43.8824 33.5561 44.3344 33.5806 44.7841 33.6295C47.5021 33.9179 50.0467 35.1094 52.0151 37.0154C50.9267 36.2922 49.7073 35.7915 48.4264 35.542C47.1456 35.2925 45.8284 35.2991 44.5501 35.5613C43.2717 35.8235 42.0573 36.3363 40.9761 37.0703C39.8949 37.8043 38.9681 38.7452 38.2486 39.8393C37.5292 40.9333 37.0311 42.1591 36.7829 43.4467C36.5347 44.7342 36.5413 46.0583 36.8021 47.3433C37.063 48.6283 37.5731 49.8491 38.3033 50.936C39.0335 52.0228 39.9695 52.9545 41.0578 53.6777L41.9796 53.1428C40.8265 52.4591 39.8399 51.5254 39.0915 50.4096C38.3431 49.2939 37.8519 48.0243 37.6538 46.6934C37.4556 45.3626 37.5555 44.0041 37.9461 42.717C38.3367 41.4299 39.0083 40.2467 39.9117 39.2536C40.8152 38.2606 41.9277 37.4828 43.1682 36.977C44.4087 36.4712 45.7459 36.2501 47.0822 36.3299C48.4185 36.4097 49.7203 36.7884 50.8925 37.4382C52.0647 38.0881 53.0778 38.9928 53.858 40.0864V37.6426C53.8478 37.6304 53.8391 37.6175 53.8296 37.6053C52.1776 35.5423 49.9542 34.018 47.4404 33.2253C44.9266 32.4325 42.2355 32.4068 39.7072 33.1515C37.179 33.8962 34.9272 35.3778 33.2366 37.4089C31.5459 39.4401 30.4924 41.9295 30.2093 44.5625C30.1607 45.015 30.1348 45.4676 30.1316 45.9201C29.9274 44.6045 29.896 43.2675 30.0385 41.9436C30.4369 38.2419 32.1799 34.8181 34.9337 32.3281C37.6875 29.8382 41.2584 28.457 44.9623 28.4494C45.5117 28.4495 46.0606 28.4795 46.6067 28.539C49.2295 28.8187 51.7319 29.7911 53.86 31.3574V30.2035C51.5746 28.6723 48.9353 27.7589 46.1966 27.5515C43.4579 27.344 40.7122 27.8494 38.2244 29.019C35.7365 30.1886 33.5905 31.9829 31.9932 34.2287C30.3959 36.4746 29.4012 39.0964 29.1052 41.8411C29.0552 42.3075 29.0289 42.7731 29.0181 43.2368C28.8826 41.9123 28.8858 40.5772 29.0275 39.2534C29.5248 34.6332 31.7003 30.3598 35.1373 27.2517C38.5742 24.1436 43.031 22.4194 47.6541 22.4092C48.3399 22.4093 49.0251 22.4465 49.7069 22.5206C51.1222 22.6749 52.5156 22.9894 53.8606 23.458V22.4588C52.5444 22.0232 51.1864 21.7274 49.8089 21.5763C47.2342 21.2896 44.6285 21.5193 42.1426 22.252C39.6568 22.9847 37.3403 24.2058 35.3273 25.8447Z" fill="#FF890A"/>
<path d="M27.4295 61C25.9224 61.0007 24.4417 60.6027 23.1361 59.846L4.29545 48.9096C2.99175 48.1501 1.90912 47.0601 1.1557 45.7483C0.402286 44.4366 0.00445275 42.9491 0.00195312 41.4344V19.5636C0.0043848 18.0489 0.402196 16.5614 1.15562 15.2496C1.90905 13.9379 2.99171 12.8478 4.29545 12.0884L23.1361 1.15198C24.4421 0.396821 25.9225 -0.000610352 27.4292 -0.000610352C28.9359 -0.000610352 30.4163 0.396821 31.7223 1.15198L50.563 12.0884C51.8667 12.8478 52.9494 13.9378 53.7029 15.2496C54.4563 16.5613 54.8541 18.0489 54.8564 19.5636V41.4392C54.854 42.9539 54.4562 44.4414 53.7028 45.7531C52.9494 47.0649 51.8667 48.1549 50.563 48.9143L31.7223 59.8508C30.4165 60.6058 28.936 61.0021 27.4295 61ZM23.7641 2.24488L4.92346 13.1813C3.8106 13.8296 2.88643 14.7601 2.24322 15.8798C1.60002 16.9995 1.2603 18.2693 1.258 19.5622V41.4392C1.26023 42.7322 1.59991 44.0019 2.24312 45.1216C2.88633 46.2414 3.81055 47.1718 4.92346 47.8201L23.7641 58.7565C24.8792 59.4016 26.1433 59.7411 27.4299 59.7411C28.7165 59.7411 29.9805 59.4016 31.0957 58.7565L49.9363 47.8201C51.0493 47.1719 51.9737 46.2415 52.617 45.1218C53.2604 44.002 53.6001 42.7322 53.6024 41.4392V19.5636C53.6001 18.2705 53.2604 17.0007 52.617 15.881C51.9737 14.7613 51.0493 13.8309 49.9363 13.1827L31.0957 2.24624C29.9805 1.60144 28.7164 1.2621 27.4299 1.2621C26.1433 1.2621 24.8793 1.60144 23.7641 2.24624V2.24488Z" fill="#FF890A"/>
<path d="M10.0024 42.875C12.2039 42.875 13.9886 41.0809 13.9886 38.8679C13.9886 36.6549 12.2039 34.8608 10.0024 34.8608C7.80081 34.8608 6.01611 36.6549 6.01611 38.8679C6.01611 41.0809 7.80081 42.875 10.0024 42.875Z" fill="#FF890A"/>
<path d="M21.179 53.9845C22.6547 53.9845 23.8511 52.7819 23.8511 51.2984C23.8511 49.8149 22.6547 48.6123 21.179 48.6123C19.7032 48.6123 18.5068 49.8149 18.5068 51.2984C18.5068 52.7819 19.7032 53.9845 21.179 53.9845Z" fill="#FF890A"/>
<path d="M38.3008 20.3103C39.925 20.3103 41.2416 18.9868 41.2416 17.3541C41.2416 15.7214 39.925 14.3978 38.3008 14.3978C36.6765 14.3978 35.3599 15.7214 35.3599 17.3541C35.3599 18.9868 36.6765 20.3103 38.3008 20.3103Z" fill="#FF890A"/>
<path d="M49.7148 31.2094C51.0235 31.2094 52.0844 30.1429 52.0844 28.8274C52.0844 27.5119 51.0235 26.4454 49.7148 26.4454C48.4061 26.4454 47.3452 27.5119 47.3452 28.8274C47.3452 30.1429 48.4061 31.2094 49.7148 31.2094Z" fill="#FF890A"/>
<path d="M33.7149 29.7018C34.7599 29.7018 35.6071 28.8502 35.6071 27.7998C35.6071 26.7493 34.7599 25.8977 33.7149 25.8977C32.6699 25.8977 31.8228 26.7493 31.8228 27.7998C31.8228 28.8502 32.6699 29.7018 33.7149 29.7018Z" fill="#FF890A"/>
<path d="M20.6265 20.1311C21.6716 20.1311 22.5187 19.2795 22.5187 18.2291C22.5187 17.1786 21.6716 16.327 20.6265 16.327C19.5815 16.327 18.7344 17.1786 18.7344 18.2291C18.7344 19.2795 19.5815 20.1311 20.6265 20.1311Z" fill="#FF890A"/>
<path d="M76.7885 41.5049C79.4599 41.5049 80.7956 40.501 80.7956 38.493C80.7956 37.3223 79.8394 36.4242 77.927 35.7988C77.1207 35.5318 76.2527 35.2858 75.3231 35.0609C74.4219 34.8469 73.5439 34.5443 72.7016 34.1574C71.8579 33.8016 71.1241 33.2258 70.5758 32.4896C70.0969 31.789 69.8497 30.9546 69.8694 30.1049C69.8212 29.3054 69.9716 28.5065 70.3071 27.7801C70.6426 27.0536 71.1527 26.4225 71.7913 25.9437C73.1271 24.9833 74.7375 24.486 76.3792 24.527C77.9318 24.4715 79.4688 24.8543 80.8159 25.6321C81.9864 26.3562 82.7691 27.6507 83.1639 29.5157H80.0346C79.9457 29.0957 79.7738 28.6979 79.5292 28.3458C79.2846 27.9938 78.9721 27.6947 78.6104 27.4663C77.8927 27.1086 77.0983 26.9342 76.2975 26.9586C75.4774 26.9356 74.6671 27.1422 73.957 27.5552C73.6364 27.7399 73.3731 28.0104 73.1966 28.3367C73.02 28.663 72.937 29.0321 72.9569 29.403C72.9298 29.7531 72.9919 30.1045 73.1374 30.4239C73.2828 30.7432 73.5068 31.0201 73.7882 31.2283C74.411 31.6477 75.0942 31.9682 75.814 32.1786C76.6203 32.4316 77.4881 32.6638 78.4173 32.8751C79.3263 33.0747 80.2098 33.3774 81.0509 33.7773C81.9093 34.1203 82.642 34.7206 83.1494 35.4966C83.6568 36.2726 83.9143 37.1867 83.8871 38.1149C83.9468 38.9707 83.7822 39.8273 83.4096 40.5991C83.0371 41.371 82.4697 42.0311 81.764 42.5137C81.0396 42.9937 80.2432 43.3538 79.4052 43.5801C78.5002 43.8225 77.567 43.9414 76.6305 43.9338C72.3757 43.9338 69.9318 42.0331 69.2988 38.2317H72.3869C72.5784 39.2429 73.1398 40.1452 73.9604 40.761C74.8082 41.2868 75.7931 41.5459 76.7885 41.5049Z" fill="#FF890A"/>
<path d="M84.0986 24.9486H88.6859V17.7803H91.6025V24.9486H96.1478V27.6734H91.6025V43.3928H88.6859V27.6734H84.0986V24.9486Z" fill="#FF890A"/>
<path d="M112.206 43.3934V40.243C112.042 40.4584 111.868 40.67 111.684 40.8777C110.888 41.799 109.905 42.5377 108.801 43.044C107.696 43.5502 106.497 43.8122 105.283 43.8122C104.069 43.8122 102.869 43.5502 101.765 43.044C100.661 42.5377 99.6773 41.799 98.8814 40.8777C97.2556 39.0256 96.3584 36.6405 96.3584 34.1703C96.3584 31.7002 97.2556 29.3151 98.8814 27.4629C99.6773 26.5417 100.661 25.8029 101.765 25.2967C102.869 24.7904 104.069 24.5284 105.283 24.5284C106.497 24.5284 107.696 24.7904 108.801 25.2967C109.905 25.8029 110.888 26.5417 111.684 27.4629C111.868 27.6706 112.042 27.8822 112.206 28.0976V24.9486H115.125V43.3941L112.206 43.3934ZM110.35 29.4777C109.76 28.8427 109.047 28.3364 108.254 27.9903C107.461 27.6441 106.606 27.4655 105.742 27.4655C104.877 27.4655 104.022 27.6441 103.23 27.9903C102.437 28.3364 101.723 28.8427 101.134 29.4777C99.9419 30.7476 99.2782 32.4273 99.2782 34.173C99.2782 35.9188 99.9419 37.5985 101.134 38.8684C101.723 39.5033 102.437 40.0095 103.23 40.3556C104.022 40.7017 104.877 40.8803 105.742 40.8803C106.606 40.8803 107.461 40.7017 108.254 40.3556C109.046 40.0095 109.76 39.5033 110.35 38.8684C111.542 37.5986 112.206 35.9189 112.206 34.173C112.206 32.4272 111.542 30.7475 110.35 29.4777Z" fill="#FF890A"/>
<path d="M126.152 27.8411C125.444 27.8223 124.751 28.052 124.193 28.4907C123.645 28.9308 123.185 29.4714 122.838 30.0839C122.134 31.3285 121.774 32.74 121.795 34.1717V43.3908H118.876V24.9486H121.795V28.7642L121.92 28.0094C122.897 25.7173 124.412 24.5712 126.466 24.5712C127.096 24.5694 127.721 24.6978 128.3 24.9486V28.7642C127.728 28.1913 126.959 27.8609 126.152 27.8411Z" fill="#FF890A"/>
<path d="M138.77 14.6781C137.797 14.6781 137.157 14.9016 136.852 15.3487C136.535 15.8332 136.375 16.404 136.393 16.9833V24.9486H141.273V27.6733H136.393V43.3941H133.474V27.6733H129.76V24.9486H133.474V17.821C133.374 16.2622 133.841 14.72 134.787 13.4813C135.663 12.4613 137.129 11.9515 139.187 11.9519H141.272V14.676L138.77 14.6781Z" fill="#FF890A"/>
<path d="M146.652 19.8961C146.65 20.3262 146.5 20.7425 146.228 21.074C145.955 21.4056 145.577 21.632 145.157 21.7146C144.737 21.7972 144.302 21.731 143.925 21.5272C143.548 21.3234 143.253 20.9946 143.09 20.5968C142.927 20.199 142.907 19.7568 143.032 19.3455C143.157 18.9341 143.42 18.5791 143.776 18.3408C144.133 18.1025 144.56 17.9957 144.986 18.0385C145.412 18.0814 145.809 18.2712 146.112 18.5758C146.287 18.7471 146.425 18.9526 146.518 19.1797C146.611 19.4068 146.656 19.6506 146.652 19.8961ZM143.357 43.3934V24.9478H146.276V43.3934H143.357Z" fill="#FF890A"/>
<path d="M168.129 35.3026H151.989C152.246 36.8441 153.064 38.2341 154.285 39.2017C155.285 40.0406 156.508 40.5651 157.802 40.7099C159.096 40.8548 160.404 40.6136 161.563 40.0163C162.51 39.5365 163.332 38.8388 163.961 37.9799H167.298C166.561 39.691 165.334 41.1431 163.774 42.1512C162.359 43.1218 160.692 43.6538 158.979 43.6813C157.552 43.7187 156.133 43.4618 154.809 42.9264C153.676 42.4374 152.644 41.7408 151.764 40.8723C150.854 39.9976 150.134 38.9429 149.65 37.7746C149.165 36.6063 148.927 35.3497 148.949 34.0841C148.955 31.5294 149.967 29.081 151.764 27.2745C153.561 25.4681 155.997 24.4507 158.538 24.4449C159.778 24.4326 161.007 24.667 162.156 25.1347C163.305 25.6023 164.35 26.294 165.232 27.1697C166.15 27.9994 166.883 29.0151 167.382 30.15C167.882 31.2849 168.137 32.5132 168.13 33.7542L168.129 35.3026ZM162.687 28.8891C161.96 28.2819 161.11 27.8412 160.196 27.5978C159.282 27.3543 158.327 27.3139 157.396 27.4795C156.465 27.645 155.581 28.0125 154.806 28.5563C154.031 29.1001 153.383 29.8071 152.907 30.6283C152.488 31.2889 152.19 32.0202 152.029 32.7869H165.041C164.728 31.2532 163.896 29.8758 162.687 28.8891Z" fill="#FF890A"/>
<path d="M170.422 43.3941V11.9532H173.342V43.3941H170.422Z" fill="#FF890A"/>
<path d="M191.69 43.3941V40.2437C191.527 40.4591 191.353 40.6707 191.169 40.8784C190.373 41.7996 189.389 42.5384 188.285 43.0446C187.181 43.5509 185.981 43.8129 184.767 43.8129C183.553 43.8129 182.354 43.5509 181.249 43.0446C180.145 42.5384 179.162 41.7996 178.366 40.8784C176.74 39.0262 175.843 36.6411 175.843 34.171C175.843 31.7009 176.74 29.3157 178.366 27.4636C179.162 26.5423 180.145 25.8036 181.249 25.2973C182.354 24.7911 183.553 24.5291 184.767 24.5291C185.981 24.5291 187.181 24.7911 188.285 25.2973C189.389 25.8036 190.373 26.5423 191.169 27.4636C191.353 27.6713 191.527 27.8829 191.69 28.0983V11.9532H194.609V43.3941H191.69ZM189.834 29.4783C189.244 28.8433 188.531 28.3371 187.738 27.9909C186.945 27.6448 186.09 27.4662 185.226 27.4662C184.362 27.4662 183.507 27.6448 182.714 27.9909C181.921 28.3371 181.208 28.8433 180.618 29.4783C179.426 30.7483 178.763 32.428 178.763 34.1737C178.763 35.9194 179.426 37.5991 180.618 38.8691C181.208 39.5039 181.921 40.01 182.714 40.356C183.507 40.7021 184.362 40.8806 185.226 40.8806C186.09 40.8806 186.945 40.7021 187.738 40.356C188.531 40.01 189.244 39.5039 189.834 38.8691C191.026 37.5993 191.69 35.9195 191.69 34.1737C191.69 32.4279 191.026 30.7481 189.834 29.4783Z" fill="#FF890A"/>
<path d="M212.125 43.3935V11.9526H215.044V28.1187C215.627 27.1151 216.425 26.2543 217.379 25.5983C218.401 24.9067 219.609 24.5479 220.84 24.5705C221.925 24.5286 223.006 24.7217 224.01 25.1367C224.795 25.4984 225.493 26.028 226.054 26.6884C227.217 28.153 227.81 29.9932 227.722 31.8651V43.3942H224.802V31.8651C224.834 30.7811 224.553 29.7109 223.991 28.7846C223.696 28.3508 223.292 28.0037 222.819 27.779C222.346 27.5543 221.823 27.46 221.302 27.5057C220.253 27.464 219.21 27.6734 218.258 28.1167C217.488 28.5146 216.834 29.1068 216.36 29.8354C215.485 31.1686 215.047 33.118 215.046 35.6835V43.3969L212.125 43.3935Z" fill="#FF890A"/>
<path d="M249.615 35.3026H233.476C233.732 36.844 234.551 38.2341 235.772 39.2017C236.771 40.0404 237.994 40.5649 239.288 40.7097C240.582 40.8546 241.89 40.6134 243.049 40.0163C243.996 39.5366 244.817 38.8388 245.446 37.9799H248.783C248.046 39.6912 246.819 41.1433 245.258 42.1512C243.843 43.1219 242.176 43.6538 240.464 43.6813C239.037 43.7186 237.618 43.4617 236.294 42.9264C235.159 42.44 234.125 41.7455 233.244 40.8784C232.333 40.0037 231.613 38.949 231.129 37.7807C230.644 36.6124 230.406 35.3558 230.428 34.0902C230.434 31.5355 231.446 29.0871 233.243 27.2806C235.04 25.4742 237.476 24.4568 240.017 24.451C241.257 24.4387 242.486 24.6731 243.635 25.1408C244.784 25.6085 245.83 26.3001 246.711 27.1758C247.63 28.0055 248.363 29.0212 248.862 30.1561C249.362 31.291 249.617 32.5193 249.61 33.7603L249.615 35.3026ZM244.173 28.8891C243.446 28.2819 242.596 27.8412 241.682 27.5977C240.768 27.3543 239.813 27.3139 238.882 27.4794C237.951 27.645 237.067 28.0124 236.292 28.5562C235.517 29.1 234.869 29.8071 234.393 30.6283C233.974 31.289 233.676 32.0202 233.515 32.7869H246.526C246.213 31.2534 245.382 29.8761 244.173 28.8891Z" fill="#FF890A"/>
<path d="M267.339 43.3934V40.243C267.175 40.4584 267.001 40.67 266.817 40.8777C266.021 41.799 265.038 42.5377 263.933 43.044C262.829 43.5502 261.629 43.8122 260.416 43.8122C259.202 43.8122 258.002 43.5502 256.898 43.044C255.793 42.5377 254.81 41.799 254.014 40.8777C252.388 39.0256 251.491 36.6405 251.491 34.1703C251.491 31.7002 252.388 29.3151 254.014 27.4629C254.81 26.5416 255.793 25.8028 256.898 25.2964C258.002 24.7901 259.202 24.5281 260.416 24.5281C261.629 24.5281 262.829 24.7901 263.934 25.2964C265.038 25.8028 266.021 26.5416 266.817 27.4629C267.001 27.6706 267.175 27.8822 267.339 28.0976V24.9486H270.258V43.3941L267.339 43.3934ZM265.483 29.4777C264.893 28.8427 264.179 28.3364 263.387 27.9903C262.594 27.6441 261.739 27.4655 260.875 27.4655C260.01 27.4655 259.155 27.6441 258.362 27.9903C257.57 28.3364 256.856 28.8427 256.266 29.4777C255.075 30.7476 254.411 32.4273 254.411 34.173C254.411 35.9188 255.075 37.5985 256.266 38.8684C256.856 39.5033 257.57 40.0095 258.362 40.3556C259.155 40.7017 260.01 40.8803 260.875 40.8803C261.739 40.8803 262.594 40.7017 263.387 40.3556C264.179 40.0095 264.893 39.5033 265.483 38.8684C266.675 37.5988 267.339 35.919 267.339 34.173C267.339 32.4271 266.675 30.7473 265.483 29.4777Z" fill="#FF890A"/>
<path d="M274.849 43.3941V11.9532H277.768V43.3941H274.849Z" fill="#FF890A"/>
<path d="M280.058 24.9486H284.645V17.7803H287.564V24.9486H292.11V27.6734H287.564V43.3928H284.645V27.6734H280.058V24.9486Z" fill="#FF890A"/>
<path d="M294.403 43.3935V11.9526H297.322V28.1187C297.906 27.1154 298.703 26.2546 299.657 25.5983C300.679 24.9069 301.887 24.5481 303.119 24.5705C304.203 24.5287 305.284 24.7217 306.288 25.1367C307.074 25.4979 307.771 26.0276 308.332 26.6884C309.495 28.153 310.088 29.9932 310 31.8651V43.3942H307.081V31.8651C307.114 30.7811 306.832 29.7109 306.271 28.7846C305.976 28.351 305.571 28.004 305.098 27.7793C304.626 27.5546 304.102 27.4602 303.581 27.5057C302.533 27.4639 301.489 27.6733 300.537 28.1167C299.767 28.5144 299.113 29.1067 298.64 29.8354C297.764 31.1686 297.325 33.118 297.325 35.6835V43.3969L294.403 43.3935Z" fill="#FF890A"/>
</g>
<defs>
<clipPath id="clip0_3136_3268">
<rect width="310" height="61" fill="white"/>
</clipPath>
</defs>
</svg>
