<svg width="38" height="37" viewBox="0 0 38 37" fill="none" xmlns="http://www.w3.org/2000/svg">
<path fill-rule="evenodd" clip-rule="evenodd" d="M18.9993 3.08333C15.6399 3.08333 12.4181 4.38273 10.0427 6.69568C7.6672 9.00863 6.33268 12.1457 6.33268 15.4167C6.33268 20.1928 9.52427 24.8274 13.0238 28.4241C14.7411 30.1892 16.4639 31.6342 17.7591 32.6384C18.2411 33.0121 18.6621 33.3234 18.9993 33.5661C19.3366 33.3234 19.7576 33.0121 20.2396 32.6384C21.5348 31.6342 23.2575 30.1892 24.9749 28.4241C28.4744 24.8274 31.666 20.1928 31.666 15.4167C31.666 12.1457 30.3315 9.00863 27.956 6.69568C25.5806 4.38273 22.3588 3.08333 18.9993 3.08333ZM18.9993 35.4583C18.1211 36.7411 18.1207 36.7408 18.1202 36.7405L18.1157 36.7376L18.1051 36.7307L18.0689 36.7068C18.038 36.6864 17.9941 36.6571 17.9378 36.6192C17.8254 36.5434 17.6637 36.4329 17.46 36.2896C17.0527 36.0032 16.4761 35.5851 15.7865 35.0504C14.4098 33.983 12.57 32.441 10.7249 30.5446C7.09943 26.8184 3.16602 21.4322 3.16602 15.4167C3.16602 11.3279 4.83417 7.40662 7.80349 4.51544C10.7728 1.62425 14.8001 0 18.9993 0C23.1986 0 27.2259 1.62425 30.1952 4.51544C33.1645 7.40662 34.8327 11.3279 34.8327 15.4167C34.8327 21.4322 30.8993 26.8184 27.2738 30.5446C25.4286 32.441 23.5889 33.983 22.2122 35.0504C21.5226 35.5851 20.946 36.0032 20.5387 36.2896C20.3349 36.4329 20.1733 36.5434 20.0609 36.6192C20.0046 36.6571 19.9607 36.6864 19.9298 36.7068L19.8936 36.7307L19.883 36.7376L19.8797 36.7398C19.8792 36.74 19.8776 36.7411 18.9993 35.4583ZM18.9993 35.4583L19.8776 36.7411C19.3458 37.0863 18.6521 37.0858 18.1202 36.7405L18.9993 35.4583Z" fill="#FF890A"/>
<path fill-rule="evenodd" clip-rule="evenodd" d="M18.9993 12.3333C17.2504 12.3333 15.8327 13.7138 15.8327 15.4167C15.8327 17.1195 17.2504 18.5 18.9993 18.5C20.7483 18.5 22.166 17.1195 22.166 15.4167C22.166 13.7138 20.7483 12.3333 18.9993 12.3333ZM12.666 15.4167C12.666 12.0109 15.5015 9.25 18.9993 9.25C22.4972 9.25 25.3327 12.0109 25.3327 15.4167C25.3327 18.8224 22.4972 21.5833 18.9993 21.5833C15.5015 21.5833 12.666 18.8224 12.666 15.4167Z" fill="#FF890A"/>
</svg>
