<svg width="56" height="56" viewBox="0 0 56 56" fill="none" xmlns="http://www.w3.org/2000/svg">
<g clip-path="url(#clip0_3146_4197)">
<path d="M46.6665 9.33344H9.33317C6.7665 9.33344 4.6665 11.4334 4.6665 14.0001V21.0001H9.33317V14.0001H46.6665V21.0001H51.3332V14.0001C51.3332 11.4334 49.2332 9.33344 46.6665 9.33344Z" fill="#A29D9B"/>
<path d="M46.6665 42.0001H9.33317V35.0001H4.6665V42.0001C4.6665 44.5668 6.7665 46.6668 9.33317 46.6668H46.6665C49.2332 46.6668 51.3332 44.5668 51.3332 42.0001V35.0001H46.6665V42.0001Z" fill="#A29D9B"/>
<path d="M34.7432 17.6168C33.9498 16.0301 31.3598 16.0301 30.5665 17.6168L23.3332 32.1068L20.7432 26.9501C20.3465 26.1568 19.5532 25.6668 18.6665 25.6668H4.6665V30.3334H17.2198L21.2332 38.3834C21.6532 39.1768 22.4465 39.6668 23.3332 39.6668C24.2198 39.6668 25.0132 39.1768 25.4098 38.3834L32.6665 23.8934L35.2565 29.0501C35.6532 29.8434 36.4465 30.3334 37.3332 30.3334H51.3332V25.6668H38.7798L34.7432 17.6168Z" fill="#A29D9B"/>
</g>
<defs>
<clipPath id="clip0_3146_4197">
<rect width="56" height="56" fill="white"/>
</clipPath>
</defs>
</svg>
