<svg width="56" height="56" viewBox="0 0 56 56" fill="none" xmlns="http://www.w3.org/2000/svg">
<path d="M49.5832 24.5001C48.6265 24.5001 47.8332 25.2935 47.8332 26.2501H44.2398C43.9034 23.1287 42.6718 20.1711 40.6932 17.7335L43.2365 15.1901L43.2598 15.2135C43.9365 15.8901 45.0565 15.8901 45.7332 15.2135C46.4098 14.5368 46.4098 13.4168 45.7332 12.7401L43.2598 10.2668C42.9305 9.94136 42.4862 9.75884 42.0232 9.75884C41.5602 9.75884 41.1158 9.94136 40.7865 10.2668C40.1098 10.9435 40.1098 12.0401 40.7632 12.7168L38.2198 15.2601C35.7835 13.2983 32.8361 12.0756 29.7265 11.7368V8.16681H29.7498C30.7065 8.16681 31.4998 7.37348 31.4998 6.41681C31.4998 5.46014 30.7065 4.66681 29.7498 4.66681H26.2498C25.2932 4.66681 24.4998 5.46014 24.4998 6.41681C24.4998 7.37348 25.2698 8.14348 26.2265 8.16681V11.7835C23.0298 12.1101 20.1132 13.3935 17.7332 15.3068L15.1898 12.7635L15.2132 12.7401C15.8898 12.0635 15.8898 10.9435 15.2132 10.2668C14.8838 9.94136 14.4395 9.75884 13.9765 9.75884C13.5135 9.75884 13.0692 9.94136 12.7398 10.2668L10.2665 12.7401C9.58984 13.4168 9.58984 14.5368 10.2665 15.2135C10.9432 15.8901 12.0398 15.8901 12.7165 15.2368L15.2598 17.7801C13.2961 20.2041 12.08 23.147 11.7598 26.2501H8.1665C8.1665 25.2935 7.37317 24.5001 6.4165 24.5001C5.45984 24.5001 4.6665 25.2935 4.6665 26.2501V29.7501C4.6665 30.7068 5.45984 31.5001 6.4165 31.5001C7.37317 31.5001 8.1665 30.7068 8.1665 29.7501H11.7598C12.1098 32.9468 13.3698 35.8401 15.2598 38.2201L12.7165 40.7635C12.5542 40.604 12.362 40.4781 12.151 40.3929C11.94 40.3078 11.7142 40.2651 11.4867 40.2673C11.2591 40.2694 11.0342 40.3164 10.8249 40.4056C10.6155 40.4947 10.4258 40.6243 10.2665 40.7868C9.58984 41.4635 9.58984 42.5835 10.2665 43.2601L12.7398 45.7335C13.4165 46.4101 14.5365 46.4101 15.2132 45.7335C15.8898 45.0568 15.8898 43.9368 15.2132 43.2601L15.1898 43.2368L17.7332 40.6935C20.1132 42.6068 23.0065 43.8668 26.2032 44.2168V47.8335C25.2465 47.8568 24.4765 48.6268 24.4765 49.5835C24.4765 50.5401 25.2698 51.3335 26.2265 51.3335H29.7265C30.6832 51.3335 31.4765 50.5401 31.4765 49.5835C31.4765 48.6268 30.6832 47.8335 29.7265 47.8335H29.7032V44.2401C32.8998 43.9135 35.8165 42.6301 38.1965 40.7168L40.7398 43.2601C40.0632 43.9368 40.0865 45.0335 40.7632 45.7101C41.4398 46.3868 42.5598 46.3868 43.2365 45.7101L45.7098 43.2368C46.3865 42.5601 46.3865 41.4401 45.7098 40.7635C45.3805 40.438 44.9362 40.2555 44.4732 40.2555C44.0102 40.2555 43.5658 40.438 43.2365 40.7635L43.2132 40.7868L40.6698 38.2435C42.6431 35.8027 43.874 32.8467 44.2165 29.7268H47.8098C47.8098 30.6835 48.6032 31.4768 49.5598 31.4768C50.5165 31.4768 51.3098 30.6835 51.3098 29.7268V26.2268C51.3332 25.2935 50.5398 24.5001 49.5832 24.5001ZM32.0832 18.6668C33.3665 18.6668 34.4165 19.7168 34.4165 21.0001C34.4165 22.2835 33.3665 23.3335 32.0832 23.3335C30.7998 23.3335 29.7498 22.2835 29.7498 21.0001C29.7498 19.7168 30.7998 18.6668 32.0832 18.6668ZM27.9998 30.3335C26.7165 30.3335 25.6665 29.2835 25.6665 28.0001C25.6665 26.7168 26.7165 25.6668 27.9998 25.6668C29.2832 25.6668 30.3332 26.7168 30.3332 28.0001C30.3332 29.2835 29.2832 30.3335 27.9998 30.3335ZM23.9165 18.6668C25.1998 18.6668 26.2498 19.7168 26.2498 21.0001C26.2498 22.2835 25.1998 23.3335 23.9165 23.3335C22.6332 23.3335 21.5832 22.2835 21.5832 21.0001C21.5832 19.7168 22.6332 18.6668 23.9165 18.6668ZM19.8332 30.3335C18.5498 30.3335 17.4998 29.2835 17.4998 28.0001C17.4998 26.7168 18.5498 25.6668 19.8332 25.6668C21.1165 25.6668 22.1665 26.7168 22.1665 28.0001C22.1665 29.2835 21.1165 30.3335 19.8332 30.3335ZM23.9165 37.3335C22.6332 37.3335 21.5832 36.2835 21.5832 35.0001C21.5832 33.7168 22.6332 32.6668 23.9165 32.6668C25.1998 32.6668 26.2498 33.7168 26.2498 35.0001C26.2498 36.2835 25.1998 37.3335 23.9165 37.3335ZM32.0832 37.3335C30.7998 37.3335 29.7498 36.2835 29.7498 35.0001C29.7498 33.7168 30.7998 32.6668 32.0832 32.6668C33.3665 32.6668 34.4165 33.7168 34.4165 35.0001C34.4165 36.2835 33.3665 37.3335 32.0832 37.3335ZM33.8332 28.0001C33.8332 26.7168 34.8832 25.6668 36.1665 25.6668C37.4498 25.6668 38.4998 26.7168 38.4998 28.0001C38.4998 29.2835 37.4498 30.3335 36.1665 30.3335C34.8832 30.3335 33.8332 29.2835 33.8332 28.0001Z" fill="#A29D9B"/>
</svg>
