<svg width="56" height="56" viewBox="0 0 56 56" fill="none" xmlns="http://www.w3.org/2000/svg">
<path d="M5.3027 52.2516C5.7822 52.4161 6.2827 52.5001 6.79195 52.5001C9.2052 52.5001 11.1249 50.7256 12.0332 49.2066C12.3867 48.6151 12.6772 47.9868 12.9642 47.3586C13.4052 46.3961 13.7867 45.5631 14.401 44.9681C15.136 44.2576 16.2927 43.8026 17.5177 43.3213C19.0052 42.7386 20.5417 42.1348 21.7789 40.9466C24.0014 38.8116 24.2027 35.6598 24.3112 33.9658C24.5317 30.5236 24.5457 27.0533 24.3777 23.5971C24.453 23.5796 24.5282 23.5656 24.6052 23.5463C25.7263 23.348 26.8618 23.2415 28.0002 23.2278C29.1391 23.2375 30.2753 23.3417 31.397 23.5393C31.4722 23.5603 31.5475 23.5726 31.6227 23.5901C31.4506 27.0472 31.4728 30.5112 31.6892 33.9658C31.7994 35.6598 32.0025 38.8116 34.2215 40.9466C35.4587 42.1348 36.9952 42.7386 38.4827 43.3213C39.7077 43.8026 40.8645 44.2576 41.5995 44.9681C42.2155 45.5631 42.5952 46.3961 43.0362 47.3586C43.3232 47.9851 43.6137 48.6133 43.9672 49.2066C44.8772 50.7256 46.7952 52.5001 49.2085 52.5001C49.7177 52.5001 50.2182 52.4161 50.696 52.2516C52.7312 51.5533 53.643 49.6721 54.1522 48.3158C58.4835 36.7378 55.0062 23.0896 45.5037 14.3553C44.4975 13.4313 43.2602 12.4006 41.6975 11.7478C39.9055 11.0023 37.9122 10.9218 36.3214 11.5483C32.5379 13.0393 32.0917 17.5438 31.9464 19.0243C31.9062 19.4373 31.8852 19.8521 31.8502 20.2668C31.3025 20.1233 30.7425 19.9676 30.1545 19.9081C30.018 19.8836 29.8762 19.8783 29.738 19.8626L29.7274 18.7898C29.7092 16.8161 29.6538 14.843 29.5612 12.8713C29.4813 10.8952 29.347 8.92161 29.1587 6.95284C29.024 5.33934 28.8752 4.26309 28.8752 4.26309C28.8428 4.05431 28.7367 3.86401 28.5763 3.72655C28.4158 3.5891 28.2115 3.51355 28.0002 3.51355C27.7889 3.51355 27.5846 3.5891 27.4241 3.72655C27.2637 3.86401 27.1576 4.05431 27.1252 4.26309C27.1252 4.26309 26.9764 5.33934 26.8435 6.95284C26.6551 8.92161 26.5209 10.8952 26.441 12.8713C26.3314 15.199 26.2725 17.5288 26.2642 19.8591C26.126 19.8748 25.9842 19.8818 25.8477 19.9046C25.2597 19.9588 24.6997 20.1146 24.1519 20.2581C24.1169 19.8468 24.096 19.4338 24.0557 19.0226C23.9105 17.5421 23.4642 13.0376 19.6807 11.5448C18.0882 10.9183 16.0967 10.9971 14.3047 11.7461C12.7419 12.3971 11.5047 13.4278 10.4984 14.3518C0.994199 23.0861 -2.4813 36.7343 1.84995 48.3141C2.3592 49.6721 3.2692 51.5533 5.3027 52.2516ZM37.6007 14.8033C37.9087 14.6826 38.2604 14.6213 38.6489 14.6213C39.2002 14.6213 39.7882 14.7438 40.3499 14.9783C41.4104 15.4211 42.3537 16.2156 43.1342 16.9313C51.6007 24.7118 54.7104 36.8306 50.8745 47.0856C50.458 48.2003 50.052 48.7708 49.5602 48.9406C48.7762 49.2171 47.6054 48.4663 46.972 47.4076C46.6832 46.9263 46.4522 46.4136 46.2177 45.9026C45.705 44.7791 45.1222 43.5068 44.032 42.4516C42.7929 41.2528 41.2512 40.6491 39.7602 40.0628C38.5387 39.5833 37.3855 39.1301 36.6487 38.4213C35.6144 37.4291 35.3204 35.8943 35.1822 33.7401C34.9952 30.7139 34.9631 27.6801 35.086 24.6506C35.5392 24.8326 35.9155 24.9988 36.276 25.1966L37.0897 25.6131C37.1072 25.6218 37.1265 25.6148 37.144 25.6236C37.235 25.8773 37.3365 26.1223 37.4362 26.3621C37.6637 26.9063 37.858 27.3771 37.9104 27.9161C37.987 28.6662 37.8795 29.4237 37.5972 30.1228C37.5198 30.3354 37.5277 30.5697 37.6193 30.7765C37.7108 30.9834 37.879 31.1467 38.0884 31.2323C38.2978 31.3179 38.5322 31.319 38.7424 31.2355C38.9526 31.152 39.1224 30.9903 39.216 30.7843C39.6048 29.8212 39.7543 28.7782 39.6517 27.7446C39.595 27.2361 39.4702 26.7376 39.2807 26.2623C39.5939 26.2448 39.902 26.1993 40.2065 26.1241C41.8165 25.7321 43.1535 24.5893 43.6942 23.1403C43.7344 23.0326 43.753 22.9179 43.7489 22.8029C43.7448 22.688 43.7181 22.5749 43.6704 22.4703C43.6226 22.3656 43.5547 22.2714 43.4705 22.193C43.3863 22.1146 43.2875 22.0536 43.1797 22.0133C43.0719 21.9731 42.9573 21.9545 42.8423 21.9586C42.7273 21.9627 42.6143 21.9894 42.5096 22.0372C42.405 22.085 42.3108 22.1529 42.2324 22.2371C42.154 22.3213 42.0929 22.4201 42.0527 22.5278C41.7185 23.4273 40.8312 24.1693 39.7917 24.4231C39.5292 24.4878 39.2562 24.5193 38.985 24.5193C38.865 24.5137 38.7457 24.499 38.628 24.4756C38.5265 24.4581 38.3969 24.4581 38.2832 24.4441C38.2482 24.3706 38.2185 24.2953 38.1607 24.2306L37.5587 23.5428C37.3137 23.2634 37.0411 23.0095 36.7449 22.7851C36.3698 22.4544 35.9657 22.158 35.5374 21.8996C35.4447 21.8366 35.3397 21.7788 35.2417 21.7176C35.2977 20.9318 35.3484 20.1461 35.4255 19.3656C35.688 16.7353 36.3775 15.2863 37.6007 14.8033ZM12.868 16.9313C13.6484 16.2138 14.59 15.4211 15.6522 14.9783C16.2122 14.7456 16.8002 14.6213 17.3514 14.6213C17.74 14.6213 18.0917 14.6826 18.3997 14.8033C19.6229 15.2863 20.3142 16.7353 20.5732 19.3673C20.6502 20.1461 20.701 20.9283 20.757 21.7106C20.659 21.7718 20.5504 21.8296 20.4577 21.8943C20.0373 22.1468 19.6417 22.4386 19.2765 22.7658C18.9787 22.9955 18.7028 23.2521 18.4522 23.5323C18.0269 23.9908 17.8047 24.2603 17.8047 24.2603C17.761 24.3128 17.754 24.3846 17.7242 24.4458C17.6087 24.4598 17.4757 24.4598 17.3724 24.4773C17.2605 24.4966 17.1485 24.5193 17.04 24.5211C16.7477 24.5001 16.4782 24.4913 16.2069 24.4248C15.1674 24.1728 14.2802 23.4291 13.9459 22.5296C13.8647 22.3119 13.7004 22.1354 13.489 22.0389C13.2777 21.9424 13.0366 21.9339 12.8189 22.0151C12.6013 22.0963 12.4248 22.2607 12.3283 22.472C12.2318 22.6834 12.2232 22.9244 12.3045 23.1421C12.8469 24.5911 14.1822 25.7338 15.7922 26.1258C16.0949 26.1993 16.4065 26.2466 16.718 26.2641C16.5482 26.7121 16.4029 27.1898 16.3469 27.7463C16.2443 28.7799 16.3939 29.823 16.7827 30.7861C16.823 30.8967 16.8852 30.9981 16.9656 31.0841C17.046 31.1701 17.143 31.239 17.2506 31.2867C17.3583 31.3344 17.4745 31.3598 17.5922 31.3615C17.71 31.3632 17.8269 31.3411 17.9359 31.2966C18.0449 31.2521 18.1437 31.186 18.2266 31.1023C18.3095 31.0186 18.3746 30.9191 18.418 30.8097C18.4615 30.7002 18.4825 30.5832 18.4796 30.4654C18.4767 30.3477 18.4502 30.2318 18.4015 30.1246C18.1195 29.4253 18.012 28.6679 18.0882 27.9178C18.1407 27.3771 18.3367 26.9063 18.5625 26.3621C18.6622 26.1241 18.7619 25.8791 18.8529 25.6271L18.9422 25.5868C18.9422 25.5868 19.2344 25.4556 19.7087 25.2123C20.0167 25.0548 20.4402 24.8641 20.9127 24.6698C21.0341 27.6935 21.0014 30.7215 20.8147 33.7418C20.6765 35.8943 20.3825 37.4291 19.3482 38.4231C18.6115 39.1318 17.4582 39.5851 16.2367 40.0646C14.7439 40.6491 13.2039 41.2546 11.9649 42.4533C10.8747 43.5086 10.2919 44.7808 9.7792 45.9043C9.5447 46.4153 9.3137 46.9263 9.02495 47.4093C8.3932 48.4681 7.2347 49.2188 6.4367 48.9423C5.9467 48.7743 5.5407 48.2021 5.1242 47.0891C1.28995 36.8306 4.40145 24.7118 12.868 16.9313Z" fill="#A29D9B"/>
</svg>
