<svg width="49" height="49" viewBox="0 0 49 49" fill="none" xmlns="http://www.w3.org/2000/svg">
<g id="BiAddToQueue">
<rect width="48" height="48" transform="translate(0.289062 0.5)" fill="white"/>
<path id="Vector" d="M40.2891 4.5H16.2891C14.0831 4.5 12.2891 6.294 12.2891 8.5V32.5C12.2891 34.706 14.0831 36.5 16.2891 36.5H40.2891C42.4951 36.5 44.2891 34.706 44.2891 32.5V8.5C44.2891 6.294 42.4951 4.5 40.2891 4.5ZM16.2891 32.5V8.5H40.2891L40.2931 32.5H16.2891Z" fill="#A29D9B"/>
<path id="Vector_2" d="M8.28906 16.5H4.28906V40.5C4.28906 42.706 6.08306 44.5 8.28906 44.5H32.2891V40.5H8.28906V16.5ZM30.2891 12.5H26.2891V18.5H20.2891V22.5H26.2891V28.5H30.2891V22.5H36.2891V18.5H30.2891V12.5Z" fill="#FF890A"/>
</g>
</svg>
