<svg width="38" height="37" viewBox="0 0 38 37" fill="none" xmlns="http://www.w3.org/2000/svg">
<path d="M25.4557 37H21.3446V32.8889H25.4557V37ZM21.3446 22.6111H17.2335V32.8889H21.3446V22.6111ZM37.7891 18.5H33.678V26.7222H37.7891V18.5ZM33.678 14.3889H29.5668V18.5H33.678V14.3889ZM9.01128 18.5H4.90017V22.6111H9.01128V18.5ZM4.90017 14.3889H0.789062V18.5H4.90017V14.3889ZM19.2891 4.11111H23.4002V0H19.2891V4.11111ZM3.8724 3.08333V9.25H10.0391V3.08333H3.8724ZM13.1224 12.3333H0.789062V0H13.1224V12.3333ZM3.8724 27.75V33.9167H10.0391V27.75H3.8724ZM13.1224 37H0.789062V24.6667H13.1224V37ZM28.5391 3.08333V9.25H34.7057V3.08333H28.5391ZM37.7891 12.3333H25.4557V0H37.7891V12.3333ZM33.678 32.8889V26.7222H25.4557V30.8333H29.5668V37H37.7891V32.8889H33.678ZM29.5668 18.5H21.3446V22.6111H29.5668V18.5ZM21.3446 14.3889H9.01128V18.5H13.1224V22.6111H17.2335V18.5H21.3446V14.3889ZM23.4002 12.3333V8.22222H19.2891V4.11111H15.178V12.3333H23.4002ZM8.4974 4.625H5.41406V7.70833H8.4974V4.625ZM8.4974 29.2917H5.41406V32.375H8.4974V29.2917ZM33.1641 4.625H30.0807V7.70833H33.1641V4.625Z" fill="#A29D9B"/>
</svg>
