<svg width="56" height="56" viewBox="0 0 56 56" fill="#000000" xmlns="http://www.w3.org/2000/svg">
<path d="M0.875 21.2626V30.4501C0.875 31.6751 1.75 32.6376 2.975 32.8126V36.2251C2.975 39.2876 5.5125 41.8251 8.575 41.8251H16.45C16.975 41.8251 17.4125 41.4751 17.4125 40.9501H18.2875C18.725 40.9501 19.075 40.6001 19.075 40.1626V36.4876C19.075 36.0501 18.725 35.7001 18.2875 35.7001H17.4125C17.325 35.2626 16.8875 34.9126 16.45 34.9126H9.8V32.8126C10.9375 32.7251 11.9 31.6751 11.9 30.4501V21.2626C11.9 20.2126 11.2 19.3376 10.2375 19.0751V18.2876C10.2375 17.0626 9.1875 16.0126 7.9625 16.0126H4.725C3.5 16.0126 2.45 17.0626 2.45 18.2876V19.0751C1.575 19.3376 0.875 20.2126 0.875 21.2626ZM9.275 18.2001V18.9001H3.5875V18.2001C3.5875 17.5876 4.1125 17.0626 4.725 17.0626H8.05C8.75 17.0626 9.275 17.5876 9.275 18.2001ZM55.125 3.50012V45.2376C49.6125 48.3001 42.2625 52.3251 42.2625 52.3251C41.7375 52.5876 41.125 52.4126 40.8625 51.8876C40.775 51.6251 40.6 51.3626 40.6 51.3626C40.25 50.6626 40.1625 50.4876 39.8125 49.7876C38.5 47.0751 37.45 46.2876 35.2625 46.2876C34.7375 46.2876 34.125 46.2876 33.3375 46.4626C31.675 46.6376 29.4875 46.5501 27.825 46.3751C27.2125 46.2876 26.425 46.1126 25.9 45.5001C25.725 45.2376 25.4625 44.8876 25.375 44.3626C25.2875 44.1001 25.1125 41.8251 25.025 41.4751C24.85 41.1251 25.025 40.6876 25.2875 40.4251C26.6 39.3751 28.2625 38.9376 29.575 37.8001C30.0125 37.4501 29.925 36.7501 29.4 36.4876C28.2625 35.9626 25.9875 35.7876 25.025 35.3501C23.1 34.5626 23.975 31.6751 21.7875 30.8876H21.7C21.4375 30.8001 21.2625 30.7126 21 30.5376C20.7375 30.3626 20.3875 30.1001 20.2125 29.6626C19.95 29.1376 20.0375 28.4376 20.5625 27.3876C20.9125 26.6876 21.2625 25.9876 21.6125 25.3751C22.1375 24.4126 22.6625 23.4501 23.0125 22.4876C23.275 21.7876 23.8 20.0376 23.3625 18.8126C21.6125 13.3001 22.4 8.13762 25.9 3.50012H55.125Z"/>
</svg>
