<svg width="28" height="28" viewBox="0 0 28 28" fill="none" xmlns="http://www.w3.org/2000/svg">
<g id="IoChatbubbleEllipsesSharp">
<path id="Vector" d="M25.9887 11.2227C25.4232 8.65721 23.9237 6.32213 21.7657 4.64781C19.5589 2.94519 16.8165 2.01819 13.9902 2.01953C10.6587 2.01953 7.54693 3.25721 5.22053 5.50475C2.97232 7.67951 1.74021 10.5509 1.75006 13.5879C1.75014 15.8145 2.42803 17.9921 3.69967 19.8506L3.93756 20.1696L2.62506 25.6445L8.90318 24.1384C8.90318 24.1384 9.02896 24.179 9.12193 24.2133C9.2149 24.2476 10.015 24.5434 10.8637 24.7723C11.5692 24.9621 13.037 25.2469 14.1871 25.2469C17.4492 25.2469 20.4953 24.0288 22.7637 21.816C25.0119 19.6207 26.2501 16.7018 26.2501 13.5942C26.2502 12.797 26.1626 12.0021 25.9887 11.2227ZM8.75006 15.5195C8.40394 15.5195 8.0656 15.4206 7.77781 15.2351C7.49002 15.0497 7.26572 14.7862 7.13327 14.4778C7.00082 14.1695 6.96616 13.8302 7.03368 13.5028C7.10121 13.1755 7.26788 12.8748 7.51262 12.6388C7.75736 12.4028 8.06918 12.2421 8.40865 12.177C8.74812 12.1118 9.09998 12.1453 9.41975 12.273C9.73952 12.4007 10.0128 12.617 10.2051 12.8945C10.3974 13.172 10.5001 13.4983 10.5001 13.832C10.5001 14.2796 10.3157 14.7088 9.9875 15.0253C9.65931 15.3417 9.21419 15.5195 8.75006 15.5195ZM14.0001 15.5195C13.6539 15.5195 13.3156 15.4206 13.0278 15.2351C12.74 15.0497 12.5157 14.7862 12.3833 14.4778C12.2508 14.1695 12.2162 13.8302 12.2837 13.5028C12.3512 13.1755 12.5179 12.8748 12.7626 12.6388C13.0074 12.4028 13.3192 12.2421 13.6587 12.177C13.9981 12.1118 14.35 12.1453 14.6698 12.273C14.9895 12.4007 15.2628 12.617 15.4551 12.8945C15.6474 13.172 15.7501 13.4983 15.7501 13.832C15.7501 14.2796 15.5657 14.7088 15.2375 15.0253C14.9093 15.3417 14.4642 15.5195 14.0001 15.5195ZM19.2501 15.5195C18.9039 15.5195 18.5656 15.4206 18.2778 15.2351C17.99 15.0497 17.7657 14.7862 17.6333 14.4778C17.5008 14.1695 17.4662 13.8302 17.5337 13.5028C17.6012 13.1755 17.7679 12.8748 18.0126 12.6388C18.2574 12.4028 18.5692 12.2421 18.9086 12.177C19.2481 12.1118 19.6 12.1453 19.9198 12.273C20.2395 12.4007 20.5128 12.617 20.7051 12.8945C20.8974 13.172 21.0001 13.4983 21.0001 13.832C21.0001 14.2796 20.8157 14.7088 20.4875 15.0253C20.1593 15.3417 19.7142 15.5195 19.2501 15.5195Z" fill="#FF890A"/>
</g>
</svg>
