<svg width="56" height="56" viewBox="0 0 56 56" fill="#000000" xmlns="http://www.w3.org/2000/svg">
<path d="M43.6231 36.8343C39.5326 41.1195 38.4126 47.5636 38.6967 53.4476V53.6668H20.2248C20.1517 52.8146 20.1112 51.9787 19.9975 51.1508C19.7865 49.6413 19.2346 48.3021 17.9523 47.3688C17.0677 46.7276 16.0532 46.4273 14.99 46.2731C14.568 46.2082 14.1378 46.1758 13.7158 46.1514C11.6057 46.0459 11.5407 43.7085 12.4173 42.6616C13.5373 41.3387 11.3297 41.4929 11.2161 40.2674C11.1836 39.8129 11.5002 39.8616 12.328 39.6424C11.2161 38.9445 10.437 38.4818 11.07 37.3213C12.3929 34.6674 5.90015 35.6737 8.34305 33.2065C9.47928 32.0702 12.7662 29.4569 12.888 25.6749C12.9773 17.1045 18.8451 11.1149 25.4352 9.20764L22.3268 16.7636C22.0833 17.3317 22.1483 18.0053 22.4648 18.4598C22.7975 18.9874 23.3819 19.312 24.0068 19.312H27.9187L25.1106 29.1891C24.8915 30.0169 25.2729 30.8772 26.0926 31.3155C26.4657 31.4882 26.8859 31.5309 27.286 31.4367C27.6862 31.3426 28.0433 31.117 28.3001 30.796L41.1558 14.6697C41.6103 14.1178 41.6915 13.3468 41.3912 12.7462C41.2442 12.4333 41.0113 12.1687 40.7195 11.9833C40.4278 11.7979 40.0893 11.6994 39.7436 11.6992H36.1645L37.0654 9.70271C48.1355 13.7363 52.1448 27.8824 43.6231 36.8343Z"/>
<path d="M40.2147 13.8987L27.3509 30.0413C27.2623 30.1502 27.1393 30.2256 27.002 30.2551C26.8648 30.2846 26.7216 30.2665 26.5961 30.2036C26.4713 30.1372 26.3728 30.0303 26.3168 29.9005C26.2608 29.7707 26.2505 29.6258 26.2877 29.4894L29.5341 18.0946H24.0071C23.8042 18.0946 23.6094 17.9891 23.5039 17.8187C23.4472 17.7365 23.4123 17.6413 23.4023 17.5419C23.3924 17.4426 23.4078 17.3423 23.4471 17.2505L29.4286 2.70678C29.474 2.59574 29.5516 2.50084 29.6514 2.4343C29.7512 2.36776 29.8686 2.33264 29.9886 2.33345H38.1289C38.3318 2.33345 38.5265 2.43896 38.6402 2.60939C38.7538 2.78794 38.77 3.00707 38.6807 3.19374L34.2738 12.9166H39.7439C39.9712 12.9166 40.1903 13.0465 40.2877 13.2575C40.3932 13.4685 40.3607 13.7201 40.2147 13.8987Z"/>
</svg>
