<svg width="56" height="56" viewBox="0 0 56 56" fill="#000000" xmlns="http://www.w3.org/2000/svg">
<path d="M50.3018 5.69556L50.3096 5.70343L50.3177 5.71095C50.5038 5.88263 50.6523 6.091 50.7539 6.32291C50.8555 6.55483 50.9079 6.80527 50.9079 7.05846C50.9079 7.31164 50.8555 7.56208 50.7539 7.794C50.6523 8.02591 50.5038 8.23428 50.3177 8.40596L50.3103 8.41278L50.3032 8.4199L45.3566 13.3666L45.0055 13.7176L45.3541 14.0712L46.9874 15.7278L46.9888 15.7293C47.3303 16.0728 47.522 16.5374 47.522 17.0218C47.522 17.5045 47.3316 17.9676 46.9923 18.3108L43.7063 21.4802L43.3399 21.8337L43.6999 22.1937L45.3565 23.8503L45.358 23.8518C45.5298 24.0222 45.6662 24.225 45.7593 24.4484C45.8524 24.6718 45.9003 24.9114 45.9003 25.1535C45.9003 25.3955 45.8524 25.6351 45.7593 25.8585C45.6662 26.0819 45.5298 26.2847 45.358 26.4551L45.3568 26.4563L27.2034 44.5863L26.8519 44.9374L27.2007 45.2912L28.8341 46.9478L28.834 46.9478L28.838 46.9518C29.0954 47.2071 29.2714 47.5331 29.3436 47.8884C29.4158 48.2437 29.381 48.6125 29.2437 48.948C29.1063 49.2836 28.8725 49.5709 28.5719 49.7736C28.2718 49.9759 27.9186 50.0849 27.5568 50.0868C27.3149 50.0855 27.0757 50.0364 26.8529 49.9422C26.6295 49.8478 26.427 49.71 26.2572 49.5368L26.2537 49.5332L18.017 41.2966L17.6634 40.943L17.3099 41.2966L13.2499 45.3566L12.8938 45.7126L13.2524 46.0662L14.908 47.6985C14.9081 47.6986 14.9083 47.6987 14.9084 47.6989C15.0801 47.8692 15.2163 48.0718 15.3093 48.2951C15.4024 48.5185 15.4503 48.7581 15.4503 49.0001C15.4503 49.2421 15.4024 49.4818 15.3093 49.7052C15.2162 49.9286 15.0798 50.1314 14.908 50.3018L15.2601 50.6568L14.908 50.3018C14.7367 50.4717 14.5335 50.6061 14.3102 50.6974C14.0868 50.7886 13.8476 50.8349 13.6063 50.8334L13.6006 50.8335C13.3593 50.8349 13.1201 50.7886 12.8967 50.6974C12.6737 50.6063 12.4709 50.4722 12.2998 50.3027C12.2995 50.3024 12.2992 50.3021 12.2989 50.3018L5.69699 43.6999C5.35139 43.3543 5.15723 42.8856 5.15723 42.3968C5.15723 41.908 5.35139 41.4393 5.69699 41.0937C6.0426 40.7481 6.51134 40.5539 7.00011 40.5539C7.4883 40.5539 7.95652 40.7476 8.302 41.0925C8.30241 41.0929 8.30281 41.0933 8.30322 41.0937L9.95742 42.7712L10.312 43.1307L10.668 42.7727L14.7047 38.7127L15.0557 38.3596L14.7042 38.0071L6.4961 29.7758C6.25403 29.4308 6.13798 29.0126 6.16818 28.5915C6.19923 28.1585 6.38293 27.7506 6.68659 27.4403C6.99024 27.1301 7.39414 26.9376 7.82639 26.8973C8.24709 26.858 8.66807 26.9653 9.01834 27.2003L10.7165 28.8067L11.07 29.1411L11.4139 28.7968L29.5439 10.6434L29.5451 10.6422C29.7155 10.4704 29.9183 10.334 30.1417 10.2409C30.3651 10.1478 30.6047 10.0999 30.8468 10.0999C31.0888 10.0999 31.3284 10.1478 31.5518 10.2409C31.7752 10.334 31.978 10.4704 32.1484 10.6422L32.1499 10.6437L33.8066 12.3003L34.1601 12.6539L34.5137 12.3003L37.8026 9.01139C37.8027 9.01127 37.8029 9.01114 37.803 9.01101C38.1464 8.66979 38.6109 8.47827 39.0951 8.47827C39.5794 8.47827 40.0441 8.66993 40.3876 9.0114L40.3891 9.01284L42.0457 10.6462L42.3993 10.9947L42.7503 10.6437L47.697 5.69701L47.6984 5.69555C47.8689 5.52372 48.0716 5.38733 48.295 5.29426L48.103 4.83339L48.2951 5.29425C48.5185 5.20118 48.7581 5.15326 49.0001 5.15326C49.2421 5.15326 49.4818 5.20118 49.7052 5.29425L49.8972 4.83339L49.7052 5.29426C49.9286 5.38733 50.1313 5.52372 50.3018 5.69556ZM13.6034 51.3335C13.9105 51.3352 14.2149 51.2764 14.4992 51.1603L13.6034 51.3335ZM17.3137 35.3574L17.6622 35.6986L18.0119 35.3587L21.3486 32.1153L21.7148 31.7594L21.3512 31.4008L17.9912 28.0874L17.6364 27.7376L17.2853 28.0912L13.9953 31.4045L13.6405 31.7618L14.0003 32.1141L17.3137 35.3574ZM23.8899 41.957L24.2422 42.3093L24.5957 41.9583L27.9091 38.6683L28.2651 38.3147L27.9103 37.9599L24.597 34.6466L24.2371 34.2867L23.8837 34.6529L20.6404 38.0129L20.2992 38.3663L20.6466 38.7137L23.8899 41.957ZM30.4932 35.3537L30.8451 35.7056L31.1987 35.3553L41.1387 25.5087L41.495 25.1556L41.1408 24.8004L32.9042 16.5404L32.9042 16.5404L32.9011 16.5374L31.2445 14.9041L30.8909 14.5555L30.5399 14.9066L20.6466 24.7999L20.293 25.1535L20.6466 25.507L30.4932 35.3537ZM40.3804 19.0141L40.7511 19.398L41.1101 19.0031L42.7434 17.2065L43.0641 16.8537L42.727 16.5166L41.0937 14.8832L39.4603 13.2499L39.1068 12.8963L38.7532 13.2499L37.0965 14.9066L36.7491 15.254L37.0904 15.6075L40.3804 19.0141Z" />
</svg>
