<svg width="56" height="56" viewBox="0 0 56 56" fill="#000000" xmlns="http://www.w3.org/2000/svg">
<path d="M17.0798 24.6401L19.5531 22.1668L17.0798 19.6934L19.5531 17.2201L24.4998 22.1668L19.5531 27.1134L17.0798 24.6401ZM10.4998 21.0001C10.5698 21.0001 10.6164 21.0234 10.6864 21.0234C12.0782 17.5711 14.4702 14.6135 17.5552 12.5305C20.6402 10.4475 24.2774 9.33418 27.9998 9.33344C33.1098 9.33344 37.7064 11.3868 41.0898 14.7001C41.4398 13.3001 42.1398 11.6901 42.9798 10.1268C38.7799 6.59297 33.4652 4.65888 27.9764 4.66677C16.5898 4.66677 7.11643 12.8568 5.08643 23.6601C6.39309 22.0268 8.37643 21.0001 10.4998 21.0001ZM48.9998 24.5001C48.0198 24.5001 47.0864 24.2901 46.2231 23.9868C46.5031 25.2701 46.6664 26.6234 46.6664 28.0001C46.6664 38.3134 38.3131 46.6668 27.9998 46.6668C20.1598 46.6668 13.4631 41.8368 10.6864 34.9768C10.6164 34.9768 10.5698 35.0001 10.4998 35.0001C9.28643 35.0001 8.07309 34.6734 6.99976 34.0668C6.25309 33.6468 5.62309 33.0868 5.08643 32.4334C7.16309 43.1901 16.5898 51.3334 27.9531 51.3334C40.8798 51.3334 51.3331 40.8801 51.3331 28.0001C51.3331 26.7168 51.1931 25.4568 51.0064 24.2201C50.3518 24.3964 49.6777 24.4904 48.9998 24.5001ZM48.9998 7.00011C48.9998 7.00011 44.3331 13.7668 44.3331 16.3334C44.3331 18.9001 46.4331 21.0001 48.9998 21.0001C51.5664 21.0001 53.6664 18.9001 53.6664 16.3334C53.6664 13.7668 48.9998 7.00011 48.9998 7.00011ZM36.4464 17.2201L31.4998 22.1668L36.4464 27.1134L38.9198 24.6401L36.4464 22.1668L38.9198 19.6934L36.4464 17.2201ZM19.9731 39.6668C21.5831 36.8901 24.5698 35.0001 27.9998 35.0001C31.4298 35.0001 34.4164 36.8901 36.0264 39.6668H39.9464C38.0798 34.8834 33.4364 31.5001 27.9998 31.5001C25.9698 31.5001 24.0331 31.9668 22.3298 32.8301L13.9764 28.0001C13.9764 26.7868 13.3698 25.6201 12.2498 24.9901C10.5698 24.0334 8.44643 24.5934 7.46643 26.2734C6.50976 27.9534 7.06976 30.0768 8.74976 31.0568C9.86976 31.7101 11.1998 31.6401 12.2264 31.0568L19.1564 35.0701C17.8264 36.3068 16.7531 37.8934 16.0531 39.6668H19.9731Z"/>
</svg>
